<?xml version="1.0" encoding="utf-8"?>
<!-- Generator: Adobe Illustrator 16.0.0, SVG Export Plug-In . SVG Version: 6.00 Build 0)  -->
<!DOCTYPE svg PUBLIC "-//W3C//DTD SVG 1.1//EN" "http://www.w3.org/Graphics/SVG/1.1/DTD/svg11.dtd">
<svg version="1.1" id="圖層_1" xmlns="http://www.w3.org/2000/svg" xmlns:xlink="http://www.w3.org/1999/xlink" x="0px" y="0px"
	 width="841.89px" height="595.28px" viewBox="0 0 841.89 595.28" enable-background="new 0 0 841.89 595.28" xml:space="preserve">
<g>
	<path fill="none" stroke="#000000" d="M261.677,84.374h32.63c7.107,0,12.43,1.69,15.969,5.07c3.539,3.38,5.309,8.19,5.309,14.43
		c0,6.413-1.929,11.426-5.785,15.037c-3.857,3.612-9.744,5.417-17.659,5.417h-10.747v23.574h-19.717V84.374z M281.394,111.458h4.81
		c3.784,0,6.442-0.657,7.974-1.972c1.531-1.314,2.297-2.997,2.297-5.049c0-1.993-0.665-3.683-1.994-5.07
		c-1.329-1.387-3.828-2.08-7.497-2.08h-5.59V111.458z"/>
	<path fill="none" stroke="#000000" d="M325.941,84.374h19.63v22.23h21.451v-22.23h19.717v63.528h-19.717v-25.697h-21.451v25.697
		h-19.63V84.374z"/>
	<path fill="none" stroke="#000000" d="M399.696,84.374h32.631c7.106,0,12.43,1.69,15.969,5.07c3.538,3.38,5.309,8.19,5.309,14.43
		c0,6.413-1.929,11.426-5.785,15.037c-3.856,3.612-9.743,5.417-17.659,5.417h-10.747v23.574h-19.718V84.374z M419.414,111.458h4.81
		c3.784,0,6.442-0.657,7.974-1.972c1.531-1.314,2.297-2.997,2.297-5.049c0-1.993-0.665-3.683-1.993-5.07
		c-1.329-1.387-3.829-2.08-7.497-2.08h-5.59V111.458z"/>
</g>
<g>
	<path fill="none" stroke="#000000" d="M245.654,178.287H264.3l6.712,35.564l9.825-35.564h18.578l9.849,35.517l6.72-35.517h18.549
		l-14.004,63.528h-19.25l-11.143-39.998l-11.099,39.998h-19.25L245.654,178.287z"/>
	<path fill="none" stroke="#000000" d="M340.903,178.287h52.607v13.563h-32.934v10.097h30.55v12.957h-30.55v12.524h33.887v14.387
		h-53.561V178.287z"/>
	<path fill="none" stroke="#000000" d="M405.081,178.287h36.749c6.124,0,10.826,1.517,14.105,4.55
		c3.278,3.033,4.918,6.789,4.918,11.267c0,3.756-1.17,6.977-3.51,9.664c-1.561,1.792-3.843,3.207-6.847,4.247
		c4.563,1.099,7.922,2.983,10.075,5.655c2.151,2.672,3.228,6.031,3.228,10.075c0,3.293-0.766,6.255-2.296,8.883
		c-1.532,2.629-3.626,4.709-6.284,6.24c-1.646,0.954-4.131,1.647-7.453,2.08c-4.42,0.578-7.353,0.867-8.797,0.867h-33.888V178.287z
		 M424.885,203.204h8.537c3.062,0,5.192-0.527,6.392-1.582c1.199-1.054,1.799-2.579,1.799-4.572c0-1.849-0.6-3.293-1.799-4.333
		s-3.286-1.56-6.262-1.56h-8.667V203.204z M424.885,228.164h10.011c3.38,0,5.764-0.599,7.15-1.798
		c1.387-1.198,2.08-2.809,2.08-4.832c0-1.877-0.687-3.387-2.059-4.528c-1.373-1.141-3.777-1.712-7.215-1.712h-9.968V228.164z"/>
</g>
<g>
	<g>
		<g>
			<path fill="none" stroke="#000000" stroke-miterlimit="10" d="M393.602,352.304H382v-22.465h-23.203v22.465h-11.602v-54.457
				h11.602v21.973H382v-21.973h11.602V352.304z"/>
			<path fill="none" stroke="#000000" stroke-miterlimit="10" d="M439.727,336.062h-25.594c0.398,6.023,4.031,9.035,10.898,9.035
				c4.289,0,8.074-1.055,11.355-3.164v8.332c-3.539,1.992-8.18,2.988-13.922,2.988c-6.188,0-10.999-1.746-14.432-5.238
				c-3.434-3.492-5.15-8.355-5.15-14.59c0-6.211,1.828-11.256,5.484-15.135s8.25-5.818,13.781-5.818c5.508,0,9.814,1.67,12.92,5.01
				s4.658,7.928,4.658,13.764V336.062z M429.145,328.96c0-5.813-2.355-8.719-7.066-8.719c-1.946,0-3.668,0.797-5.168,2.391
				c-1.5,1.594-2.438,3.703-2.813,6.328H429.145z"/>
			<path fill="none" stroke="#000000" stroke-miterlimit="10" d="M446.934,352.304v-57.551h11.32v57.551H446.934z"/>
			<path fill="none" stroke="#000000" stroke-miterlimit="10" d="M468.238,352.304v-57.551h11.32v57.551H468.238z"/>
			<path fill="none" stroke="#000000" stroke-miterlimit="10" d="M487.398,333.038c0-6.398,1.916-11.426,5.748-15.082
				s8.982-5.484,15.451-5.484c6.258,0,11.227,1.799,14.906,5.396s5.52,8.432,5.52,14.502c0,6.375-1.887,11.449-5.66,15.223
				s-8.883,5.66-15.328,5.66c-6.328,0-11.35-1.811-15.064-5.432S487.398,339.272,487.398,333.038z M498.895,332.897
				c0,7.758,3.164,11.637,9.492,11.637c6.07,0,9.105-3.984,9.105-11.953c0-7.594-3.059-11.391-9.176-11.391
				c-2.977,0-5.291,1.02-6.943,3.059S498.895,329.171,498.895,332.897z"/>
			<path fill="none" stroke="#000000" stroke-miterlimit="10" d="M379.434,438.704h-32.238v-54.457h30.973v9.492h-19.371v12.832h18
				v9.457h-18v13.184h20.637V438.704z"/>
			<path fill="none" stroke="#000000" stroke-miterlimit="10" d="M410.125,438.247c-1.711,0.938-4.301,1.406-7.77,1.406
				c-8.25,0-12.375-4.336-12.375-13.008v-18.352h-6.398v-8.473h6.398v-8.543l11.285-3.234v11.777h8.859v8.473h-8.859v16.383
				c0,4.148,1.64,6.223,4.922,6.223c1.266,0,2.578-0.375,3.938-1.125V438.247z"/>
			<path fill="none" stroke="#000000" stroke-miterlimit="10" d="M453.789,438.704h-11.32v-22.148c0-5.977-2.18-8.965-6.539-8.965
				c-2.18,0-3.979,0.832-5.396,2.496s-2.127,3.82-2.127,6.469v22.148h-11.355v-57.551h11.355v24.504h0.141
				c2.977-4.523,6.984-6.785,12.023-6.785c8.813,0,13.219,5.32,13.219,15.961V438.704z"/>
			<path fill="none" stroke="#000000" stroke-miterlimit="10" d="M464.477,402.177c1.758-0.984,4.107-1.781,7.049-2.391
				s5.455-0.914,7.541-0.914c10.875,0,16.313,5.449,16.313,16.348v23.484h-10.793v-5.66h-0.141
				c-2.648,4.406-6.527,6.609-11.637,6.609c-3.68,0-6.627-1.049-8.842-3.146s-3.322-4.951-3.322-8.561
				c0-7.453,4.441-11.789,13.324-13.008l10.688-1.441c0-4.523-2.355-6.785-7.066-6.785c-4.641,0-9.012,1.406-13.113,4.219V402.177z
				 M477.309,421.091c-4.102,0.539-6.152,2.391-6.152,5.555c0,1.453,0.498,2.625,1.494,3.516s2.338,1.336,4.025,1.336
				c2.32,0,4.23-0.82,5.73-2.461s2.25-3.68,2.25-6.117v-2.777L477.309,421.091z"/>
			<path fill="none" stroke="#000000" stroke-miterlimit="10" d="M542.066,438.704h-11.285v-21.691c0-6.281-2.262-9.422-6.785-9.422
				c-2.156,0-3.949,0.838-5.379,2.514s-2.145,3.814-2.145,6.416v22.184h-11.355v-38.883h11.355v6.188h0.141
				c2.836-4.758,7.008-7.137,12.516-7.137c8.625,0,12.938,5.344,12.938,16.031V438.704z"/>
		</g>
	</g>
</g>
</svg>
